<svg id="Group_232" data-name="Group 232" xmlns="http://www.w3.org/2000/svg" xmlns:xlink="http://www.w3.org/1999/xlink" width="26.902" height="26.901" viewBox="0 0 26.902 26.901">
  <defs>
    <linearGradient id="linear-gradient" x1="0.5" x2="0.5" y2="1" gradientUnits="objectBoundingBox">
      <stop offset="0" stop-color="#64b2ff"/>
      <stop offset="0.498" stop-color="#0052a1"/>
      <stop offset="1" stop-color="#003f9f"/>
    </linearGradient>
  </defs>
  <ellipse id="Ellipse_16" data-name="Ellipse 16" cx="13.451" cy="13.451" rx="13.451" ry="13.451" fill="url(#linear-gradient)"/>
  <path id="Path_141" data-name="Path 141" d="M4147.858,307.222a3.281,3.281,0,0,1-5.014,0,3.034,3.034,0,0,0-3.063,3.064c0,2.106,1.894,3.822,4.762,6.429l.809.73.808-.736c2.869-2.6,4.763-4.317,4.763-6.423A3.034,3.034,0,0,0,4147.858,307.222Zm-2.45,8.663-.056.056-.057-.056c-2.651-2.4-4.4-3.989-4.4-5.6a1.9,1.9,0,0,1,1.95-1.95,2.178,2.178,0,0,1,1.989,1.315h1.042a2.165,2.165,0,0,1,1.983-1.315,1.9,1.9,0,0,1,1.95,1.95C4149.808,311.9,4148.059,313.484,4145.408,315.885Z" transform="translate(-4131.9 -298.883)" fill="#fff"/>
</svg>
