<svg xmlns="http://www.w3.org/2000/svg" width="19.906" height="17.61" viewBox="0 0 19.906 17.61">
  <path id="Path_100" data-name="Path 100" d="M2674.753,78.547a3.622,3.622,0,0,1,.745.079c2.9.612,5.137,4.142,1.153,8.082-3.925,3.888-5.383,5.216-5.992,5.783v0h0v0c-.572-.532-2.068-1.9-5.995-5.783-3.982-3.94-1.746-7.47,1.154-8.082a3.615,3.615,0,0,1,.744-.079c2.5,0,4.073,2.692,4.1,2.724.026-.032,1.593-2.724,4.1-2.724m0-1.034a5.115,5.115,0,0,1-8.194,0,4.654,4.654,0,0,0-.958.1,5.136,5.136,0,0,0-3.933,3.5c-.347,1.181-.515,3.572,2.266,6.324,3.636,3.6,5.2,5.049,5.869,5.668l.122.113a1.024,1.024,0,0,0,.352.231,1.06,1.06,0,0,0,.321.07l.061,0a1.04,1.04,0,0,0,.74-.312l.139-.128c.727-.674,2.239-2.077,5.842-5.643,2.781-2.752,2.615-5.144,2.268-6.324a5.136,5.136,0,0,0-3.936-3.5,4.629,4.629,0,0,0-.958-.1Z" transform="translate(-2660.704 -76.763)" fill="none" stroke="#0064fe" stroke-width="1.5"/>
</svg>
