<svg xmlns="http://www.w3.org/2000/svg" xmlns:xlink="http://www.w3.org/1999/xlink" width="126" height="122" viewBox="0 0 126 122">
  <defs>
    <radialGradient id="radial-gradient" cx="0.5" cy="0.5" r="0.5" gradientUnits="objectBoundingBox">
      <stop offset="0" stop-color="#0078ff"/>
      <stop offset="1" stop-color="#004ca1"/>
    </radialGradient>
    <linearGradient id="linear-gradient" x1="-0.335" y1="1" x2="0.544" y2="0.235" gradientUnits="objectBoundingBox">
      <stop offset="0" stop-color="#fff"/>
      <stop offset="1" stop-color="#fff" stop-opacity="0"/>
    </linearGradient>
  </defs>
  <g id="Group_3350" data-name="Group 3350" transform="translate(-0.124 0.259)">
    <g id="Group_2390" data-name="Group 2390" transform="translate(0 0)">
      <rect id="Rectangle_1686" data-name="Rectangle 1686" width="126" height="122" rx="22" transform="translate(0.124 -0.259)" fill="url(#radial-gradient)"/>
      <g id="Group_2379" data-name="Group 2379" transform="translate(76.036 23.521)">
        <circle id="Ellipse_217" data-name="Ellipse 217" cx="13.395" cy="13.395" r="13.395" transform="translate(0 0)" fill="#00b3ff"/>
      </g>
      <path id="icon_63_" d="M86.725,55.237A43.138,43.138,0,0,1,84.186,66.9a9.592,9.592,0,0,1-7.661,6.326c-3.572.646-7.144,1.076-10.759,1.592-.559.086-.559.473-.6.818A11.481,11.481,0,0,1,61.2,82.609a18.144,18.144,0,0,1-7.7,3.873c-2.41.6-4.906.947-7.4,1.334-.258.043-.775-.172-.818-.344a1.105,1.105,0,0,1,.344-.861A21.425,21.425,0,0,0,50.4,81.533a9.778,9.778,0,0,0,1.765-5.552,1.93,1.93,0,0,0-.043-.473c-1.377-.086-2.668-.129-4-.172A91.077,91.077,0,0,1,31.035,73.1a9.336,9.336,0,0,1-6.843-6.154,45.8,45.8,0,0,1-2.539-19.711,43.884,43.884,0,0,1,2.5-11.491,9.816,9.816,0,0,1,7.661-6.456,114.866,114.866,0,0,1,23.67-2.195,107.1,107.1,0,0,1,21.6,2.324,9.391,9.391,0,0,1,7.058,6.2,44.629,44.629,0,0,1,2.582,19.625Z" transform="translate(9.408 7.074)" fill="#fff"/>
      <path id="icon_63_2" data-name="icon_63_" d="M86.725,55.237A43.138,43.138,0,0,1,84.186,66.9a9.592,9.592,0,0,1-7.661,6.326c-3.572.646-7.144,1.076-10.759,1.592-.559.086-.559.473-.6.818A11.481,11.481,0,0,1,61.2,82.609a18.144,18.144,0,0,1-7.7,3.873c-2.41.6-4.906.947-7.4,1.334-.258.043-.775-.172-.818-.344a1.105,1.105,0,0,1,.344-.861A21.425,21.425,0,0,0,50.4,81.533a9.778,9.778,0,0,0,1.765-5.552,1.93,1.93,0,0,0-.043-.473c-1.377-.086-2.668-.129-4-.172A91.077,91.077,0,0,1,31.035,73.1a9.336,9.336,0,0,1-6.843-6.154,45.8,45.8,0,0,1-2.539-19.711,43.884,43.884,0,0,1,2.5-11.491,9.816,9.816,0,0,1,7.661-6.456,114.866,114.866,0,0,1,23.67-2.195,107.1,107.1,0,0,1,21.6,2.324,9.391,9.391,0,0,1,7.058,6.2,44.629,44.629,0,0,1,2.582,19.625Z" transform="translate(9.408 7.074)" fill="url(#linear-gradient)"/>
    </g>
  </g>
</svg>
