<svg id="Layer_2" data-name="Layer 2" xmlns="http://www.w3.org/2000/svg" width="59.365" height="59.365" viewBox="0 0 59.365 59.365">
  <g id="Color" transform="translate(0)">
    <g id="_04.Twitter" data-name="04.Twitter">
      <ellipse id="Background" cx="29.682" cy="29.682" rx="29.682" ry="29.682" fill="#03a9f4"/>
      <path id="Icon" d="M65.286,39.7a16.422,16.422,0,0,1-4.547,1.247,7.843,7.843,0,0,0,3.472-4.363,15.765,15.765,0,0,1-5,1.912,7.89,7.89,0,0,0-13.653,5.4,8.16,8.16,0,0,0,.184,1.8,22.349,22.349,0,0,1-16.269-8.254,7.9,7.9,0,0,0,2.428,10.557,7.789,7.789,0,0,1-3.566-.974V47.1a7.929,7.929,0,0,0,6.322,7.75,7.871,7.871,0,0,1-2.068.258,7.038,7.038,0,0,1-1.5-.133,7.972,7.972,0,0,0,7.378,5.5,15.87,15.87,0,0,1-9.775,3.366,14.255,14.255,0,0,1-1.888-.109,22.2,22.2,0,0,0,12.121,3.542c14.525,0,22.466-12.031,22.466-22.459,0-.348,0-.684-.027-1.02A15.7,15.7,0,0,0,65.286,39.7Z" transform="translate(-16.283 -21.919)" fill="#fff"/>
    </g>
  </g>
</svg>
