<svg id="whatsapp" xmlns="http://www.w3.org/2000/svg" width="59.431" height="59.431" viewBox="0 0 59.431 59.431">
  <path id="Path_1863" data-name="Path 1863" d="M29.723,0h-.015A29.7,29.7,0,0,0,5.657,47.133l-3.7,11.039,11.422-3.651A29.71,29.71,0,1,0,29.723,0Z" fill="#4caf50"/>
  <path id="Path_1864" data-name="Path 1864" d="M141.827,145.459c-.717,2.024-3.562,3.7-5.832,4.194-1.553.331-3.581.594-10.408-2.236-8.733-3.618-14.356-12.492-14.795-13.067-.42-.576-3.529-4.7-3.529-8.963a9.487,9.487,0,0,1,3.038-7.232,4.317,4.317,0,0,1,3.038-1.066c.368,0,.7.019,1,.033.873.037,1.311.089,1.887,1.467.717,1.727,2.463,5.991,2.671,6.43a1.769,1.769,0,0,1,.126,1.608,5.135,5.135,0,0,1-.962,1.363c-.438.505-.854.891-1.293,1.434-.4.472-.854.977-.349,1.85a26.376,26.376,0,0,0,4.821,5.991,21.846,21.846,0,0,0,6.968,4.3,1.879,1.879,0,0,0,2.095-.331,35.961,35.961,0,0,0,2.322-3.076,1.658,1.658,0,0,1,2.132-.646c.8.279,5.048,2.377,5.921,2.812s1.449.646,1.66,1.014A7.4,7.4,0,0,1,141.827,145.459Z" transform="translate(-94.813 -103.497)" fill="#fafafa"/>
</svg>
