<svg xmlns="http://www.w3.org/2000/svg" xmlns:xlink="http://www.w3.org/1999/xlink" width="126" height="121" viewBox="0 0 126 121">
  <defs>
    <radialGradient id="radial-gradient" cx="0.5" cy="0.5" r="0.5" gradientUnits="objectBoundingBox">
      <stop offset="0" stop-color="#0078ff"/>
      <stop offset="1" stop-color="#004ca1"/>
    </radialGradient>
    <linearGradient id="linear-gradient" x2="0.798" y2="0.663" gradientUnits="objectBoundingBox">
      <stop offset="0" stop-color="#fff"/>
      <stop offset="1" stop-color="#fff" stop-opacity="0"/>
    </linearGradient>
  </defs>
  <g id="Group_3347" data-name="Group 3347" transform="translate(-0.476 0.375)">
    <g id="Group_2389" data-name="Group 2389" transform="translate(0)">
      <rect id="Rectangle_1683" data-name="Rectangle 1683" width="126" height="121" rx="22" transform="translate(0.476 -0.375)" fill="url(#radial-gradient)"/>
      <circle id="Ellipse_218" data-name="Ellipse 218" cx="13.395" cy="13.395" r="13.395" transform="translate(69.686 70.389)" fill="#00b3ff"/>
      <path id="Path_1888" data-name="Path 1888" d="M38.4,18.146l17.532,1.441a1.624,1.624,0,0,1,.935,2.842L43.617,34a1.623,1.623,0,0,0-.513,1.6l4.048,17.119a1.624,1.624,0,0,1-2.415,1.767l-15.1-9.029a1.625,1.625,0,0,0-1.677.006L12.932,54.6a1.624,1.624,0,0,1-2.427-1.75L14.428,35.7a1.623,1.623,0,0,0-.524-1.592L.567,22.634a1.625,1.625,0,0,1,.915-2.849L19,18.217a1.621,1.621,0,0,0,1.353-.991L27.144,1A1.624,1.624,0,0,1,30.136.986l6.907,16.179a1.622,1.622,0,0,0,1.36.981" transform="translate(34.376 29.421)" fill="#fff"/>
      <rect id="Rectangle_1688" data-name="Rectangle 1688" width="57.428" height="54.837" transform="translate(34.376 29.421)" fill="none"/>
      <path id="Path_1889" data-name="Path 1889" d="M38.4,18.146l17.532,1.441a1.624,1.624,0,0,1,.935,2.842L43.617,34a1.623,1.623,0,0,0-.513,1.6l4.048,17.119a1.624,1.624,0,0,1-2.415,1.767l-15.1-9.029a1.625,1.625,0,0,0-1.677.006L12.932,54.6a1.624,1.624,0,0,1-2.427-1.75L14.428,35.7a1.623,1.623,0,0,0-.524-1.592L.567,22.634a1.625,1.625,0,0,1,.915-2.849L19,18.217a1.621,1.621,0,0,0,1.353-.991L27.144,1A1.624,1.624,0,0,1,30.136.986l6.907,16.179a1.622,1.622,0,0,0,1.36.981" transform="translate(34.376 29.421)" fill="url(#linear-gradient)"/>
    </g>
  </g>
</svg>
